<svg fill="#FFFFFF" height="800px" width="800px" version="1.1" id="Layer_1" xmlns="http://www.w3.org/2000/svg" xmlns:xlink="http://www.w3.org/1999/xlink" 
     viewBox="0 0 512.001 512.001" xml:space="preserve">
<g>
    <g>
        <path d="M429.124,242.769H291.303v-98.631h7.504c10.191,0,18.453-8.262,18.453-18.453V34.57c0-10.191-8.262-18.453-18.453-18.453
            H18.453C8.262,16.118,0,24.379,0,34.57v91.115c0,10.191,8.262,18.453,18.453,18.453h7.504c0,9.098,0,324.436,0,333.293
            c0,10.191,8.262,18.453,18.453,18.453h449.14c10.191,0,18.453-8.262,18.453-18.453c0-5.122,0-146.027,0-151.786
            C512,279.947,474.822,242.769,429.124,242.769z"/>
    </g>
</g>
</svg>